<?xml version="1.0" encoding="UTF-8"?>
<svg version="1.1" xmlns="http://www.w3.org/2000/svg" width="500" height="500">
<path d="M0 0 C165 0 330 0 500 0 C500 165 500 330 500 500 C335 500 170 500 0 500 C0 335 0 170 0 0 Z " fill="#FEFEFE" transform="translate(0,0)"/>
<path d="M0 0 C165 0 330 0 500 0 C500 67.32 500 134.64 500 204 C482.55985915 217.08010563 482.55985915 217.08010563 473.6796875 223.3828125 C469.51932954 226.33569068 465.38428726 229.32327643 461.25 232.3125 C460.49219238 232.860271 459.73438477 233.40804199 458.95361328 233.97241211 C457.40715075 235.09038993 455.86076446 236.20847322 454.31445312 237.32666016 C451.29091913 239.51266248 448.26626449 241.69711062 445.24145508 243.88134766 C443.74377619 244.96288682 442.24621811 246.04459331 440.7487793 247.12646484 C437.01292827 249.82541173 433.27560767 252.52227542 429.53515625 255.21484375 C421.74084153 260.82903178 413.975464 266.47885383 406.25 272.1875 C399.73131921 277.00394216 393.1755172 281.76022935 386.5703125 286.45703125 C375.33403583 294.44903085 364.19589278 302.57410514 353.10668945 310.76855469 C347.02521405 315.25769203 340.90437524 319.68967036 334.76953125 324.10546875 C329.31916162 328.03392016 323.90325984 332.00705268 318.5 336 C311.62379195 341.08143923 304.7119472 346.10969023 297.77172852 351.10327148 C292.29622129 355.04867299 286.8618829 359.04719069 281.4375 363.0625 C274.79701033 367.97380103 268.0984536 372.78980018 261.33911133 377.53588867 C249.13632682 386.10832706 237.09927384 394.90675727 225.10595703 403.76904297 C219.76186296 407.71398785 214.39099923 411.61944818 209 415.5 C200.44434 421.66063654 191.95364244 427.90683701 183.47460938 434.17236328 C179.09015315 437.41052817 174.70101303 440.64233651 170.3125 443.875 C168.70440753 445.0598693 167.09633272 446.24476257 165.48828125 447.4296875 C164.32552083 448.28645833 163.16276042 449.14322917 162 450 C159.0884719 448.62416025 156.51234472 447.04666973 153.890625 445.1796875 C153.13652344 444.64472656 152.38242188 444.10976563 151.60546875 443.55859375 C150.82816406 443.00300781 150.05085937 442.44742187 149.25 441.875 C148.45722656 441.31167969 147.66445312 440.74835938 146.84765625 440.16796875 C144.89665924 438.78111545 142.94752412 437.39172386 141 436 C141.59391203 430.89855298 142.72994903 426.23242934 144.36987305 421.36035156 C144.61112663 420.62783959 144.85238022 419.89532763 145.10094452 419.14061832 C145.89899611 416.72208179 146.70534574 414.30639847 147.51171875 411.890625 C148.07860856 410.17776534 148.64494769 408.46472333 149.21076965 406.75151062 C150.40978492 403.12463185 151.61235316 399.49895959 152.81787109 395.87423706 C154.68896222 390.24819733 156.55236162 384.61963151 158.4140625 378.99047852 C159.03169095 377.12323968 159.64933616 375.25600638 160.26699829 373.38877869 C160.7227014 372.01116017 160.7227014 372.01116017 161.18761063 370.60571098 C162.10324627 367.83874738 163.01968043 365.07204951 163.93637085 362.30543518 C168.50015371 348.52986905 173.02298296 334.7415422 177.5 320.9375 C179.10611724 315.98734465 179.10611724 315.98734465 179.88237 313.59591675 C180.34103748 312.18159443 180.7988744 310.76700235 181.25569153 309.3520813 C182.40990424 305.78294288 183.60991985 302.23366977 184.84375 298.69140625 C186.19927161 295.00852103 186.19927161 295.00852103 186 291 C185.05382812 291.03254883 184.10765625 291.06509766 183.1328125 291.09863281 C150.92885365 292.02813551 150.92885365 292.02813551 141.18652344 283.07910156 C140.0477694 281.97033189 138.92215664 280.84790614 137.81005859 279.71240234 C134.45474553 276.53811507 130.56976172 274.07726144 126.75 271.5 C125.34521451 270.53668694 123.94391172 269.56826666 122.546875 268.59375 C121.66273926 267.98563477 121.66273926 267.98563477 120.76074219 267.36523438 C118.66068591 265.73690455 116.86522949 263.88962536 115 262 C125.00586224 261.69657714 135.01060228 261.46671209 145.02015591 261.32644176 C149.67013831 261.25905756 154.31693762 261.16794797 158.96508789 261.01928711 C194.77037473 259.90395182 194.77037473 259.90395182 204.53515625 268.17578125 C206.24879479 269.8220487 207.84368411 271.50386962 209.39968872 273.29922485 C212.23484398 276.31236465 215.6279831 278.62479148 219 281 C218.4085875 286.05423334 217.29961999 290.67944677 215.67431641 295.50708008 C215.43824677 296.22402039 215.20217712 296.94096069 214.95895386 297.67962646 C214.17867389 300.04479289 213.3901123 302.40711048 212.6015625 304.76953125 C212.0458703 306.44909384 211.49073626 308.12884119 210.93612671 309.8087616 C209.46918199 314.24763405 207.99537776 318.68419784 206.51989746 323.12023926 C204.20043878 330.09823151 201.89227888 337.07997734 199.58187103 344.06097031 C198.72890952 346.63744179 197.87513096 349.21364156 197.02130127 351.78982544 C191.59718047 368.16620749 186.28162002 384.57717395 181 401 C181.5433902 400.59843185 182.0867804 400.19686371 182.64663696 399.78312683 C192.13413915 392.77260918 201.64236557 385.79503398 211.21728516 378.90429688 C216.75683739 374.91204477 222.25904461 370.87127101 227.75 366.8125 C234.26859792 361.99594759 240.82448479 357.23976924 247.4296875 352.54296875 C257.94225322 345.0657213 268.37468214 337.47881132 278.75 329.8125 C285.26724298 324.99714943 291.82113274 320.24135556 298.42578125 315.546875 C304.87525511 310.96009787 311.27707393 306.30666647 317.68994141 301.66894531 C319.95180829 300.03481701 322.21576308 298.4036287 324.48046875 296.7734375 C332.1853087 291.22450027 339.8628106 285.64176126 347.5 280 C355.87948458 273.80988881 364.31107363 267.69525691 372.76611328 261.60888672 C376.51359784 258.90987872 380.25655845 256.20461116 384 253.5 C385.49997854 252.41663696 386.99997854 251.33330362 388.5 250.25 C389.61375 249.445625 389.61375 249.445625 390.75 248.625 C409.5 235.08333333 428.25 221.54166667 447 208 C446.13928741 208.00282039 445.27857481 208.00564079 444.39178002 208.00854665 C393.33601054 208.17419176 342.28049464 208.2718456 291.22444511 208.28166701 C285.08892026 208.28290586 278.95339569 208.2847106 272.81787109 208.28686523 C270.98572539 208.28749437 270.98572539 208.28749437 269.11656664 208.28813621 C249.36038349 208.29626851 229.60457896 208.3502043 209.84853305 208.42118094 C189.56463662 208.49303013 169.28111703 208.5153936 148.99710453 208.49218339 C136.48868962 208.47941926 123.9815676 208.50487609 111.47336565 208.57981863 C102.88645252 208.62756262 94.30036959 208.62707338 85.71341039 208.58934812 C80.76461006 208.56900939 75.81817453 208.56927054 70.86961746 208.62704659 C34.35815417 209.02837223 34.35815417 209.02837223 22.07044792 197.1655302 C21.5475662 196.61791983 21.02468448 196.07030946 20.48595786 195.50610483 C18.4036838 193.3955988 16.05239075 191.7833123 13.59375 190.140625 C12.54380859 189.398125 12.54380859 189.398125 11.47265625 188.640625 C10.82167969 188.18171875 10.17070312 187.7228125 9.5 187.25 C8.78714844 186.7446875 8.07429687 186.239375 7.33984375 185.71875 C3.78616359 183.17067862 3.78616359 183.17067862 0 181 C0 121.27 0 61.54 0 0 Z " fill="#FEFEFE" transform="translate(0,0)"/>
<path d="M0 0 C162.03 0 324.06 0 491 0 C495.9382716 12.34567901 495.9382716 12.34567901 497.375 16.375 C497.73335938 17.35210937 498.09171875 18.32921875 498.4609375 19.3359375 C499.10605713 22.52413741 498.68033017 23.29603946 497 26 C495.49804687 27.34936523 495.49804687 27.34936523 493.71875 28.55859375 C493.05109619 29.01999756 492.38344238 29.48140137 491.69555664 29.95678711 C490.97102295 30.44542236 490.24648926 30.93405762 489.5 31.4375 C487.94590413 32.50938733 486.39254197 33.58233907 484.83984375 34.65625 C484.03788574 35.20796875 483.23592773 35.7596875 482.40966797 36.328125 C478.58923081 38.97881939 474.82570929 41.7064451 471.0625 44.4375 C469.55341437 45.52998792 468.04429964 46.62243563 466.53515625 47.71484375 C465.41197998 48.52864502 465.41197998 48.52864502 464.26611328 49.35888672 C460.51355186 52.07648184 456.75651207 54.78787009 453 57.5 C452.25685547 58.03689453 451.51371094 58.57378906 450.74804688 59.12695312 C447.01246565 61.82577286 443.27536973 64.5224467 439.53515625 67.21484375 C431.82537027 72.76804624 424.14242369 78.35437205 416.5 84 C408.12051542 90.19011119 399.68892637 96.30474309 391.23388672 102.39111328 C387.48640231 105.09012118 383.74338799 107.79531494 380 110.5 C375.51389621 113.74131453 371.02695169 116.98141954 366.53515625 120.21484375 C358.01996829 126.34816095 349.54549816 132.53260679 341.10571289 138.76928711 C335.02455095 143.25816363 328.90404491 147.68990813 322.76953125 152.10546875 C317.31916162 156.03392016 311.90325984 160.00705268 306.5 164 C299.62379195 169.08143923 292.7119472 174.10969023 285.77172852 179.10327148 C280.2962226 183.04867205 274.86181388 187.04709882 269.4375 191.0625 C262.82442616 195.95509934 256.14827915 200.74283549 249.41162109 205.46337891 C243.25697658 209.7889208 237.20227561 214.24312065 231.15625 218.71875 C225.79737685 222.68344477 220.4109628 226.60673905 215 230.5 C208.005835 235.53411438 201.05962794 240.62994231 194.12963867 245.75195312 C187.83149416 250.40137211 181.49533348 254.99616986 175.13671875 259.5625 C170.37962658 262.98333032 165.67476771 266.46750093 161 270 C158.0884719 268.62416025 155.51234472 267.04666973 152.890625 265.1796875 C152.13652344 264.64472656 151.38242188 264.10976563 150.60546875 263.55859375 C149.82816406 263.00300781 149.05085937 262.44742187 148.25 261.875 C147.45722656 261.31167969 146.66445312 260.74835938 145.84765625 260.16796875 C143.89665924 258.78111545 141.94752412 257.39172386 140 256 C140.59391203 250.89855298 141.72994903 246.23242934 143.36987305 241.36035156 C143.61112663 240.62783959 143.85238022 239.89532763 144.10094452 239.14061832 C144.89899611 236.72208179 145.70534574 234.30639847 146.51171875 231.890625 C147.07860856 230.17776534 147.64494769 228.46472333 148.21076965 226.75151062 C149.40978492 223.12463185 150.61235316 219.49895959 151.81787109 215.87423706 C153.68896222 210.24819733 155.55236162 204.61963151 157.4140625 198.99047852 C158.03169095 197.12323968 158.64933616 195.25600638 159.26699829 193.38877869 C159.57080036 192.47036634 159.87460243 191.551954 160.18761063 190.60571098 C161.10324627 187.83874738 162.01968043 185.07204951 162.93637085 182.30543518 C167.50015371 168.52986905 172.02298296 154.7415422 176.5 140.9375 C178.10611724 135.98734465 178.10611724 135.98734465 178.88237 133.59591675 C179.34103748 132.18159443 179.7988744 130.76700235 180.25569153 129.3520813 C181.40990424 125.78294288 182.60991985 122.23366977 183.84375 118.69140625 C185.19927161 115.00852103 185.19927161 115.00852103 185 111 C184.05382812 111.03254883 183.10765625 111.06509766 182.1328125 111.09863281 C149.92885365 112.02813551 149.92885365 112.02813551 140.18652344 103.07910156 C139.0477694 101.97033189 137.92215664 100.84790614 136.81005859 99.71240234 C133.45474553 96.53811507 129.56976172 94.07726144 125.75 91.5 C124.34521451 90.53668694 122.94391172 89.56826666 121.546875 88.59375 C120.95745117 88.18833984 120.36802734 87.78292969 119.76074219 87.36523438 C117.66068591 85.73690455 115.86522949 83.88962536 114 82 C124.00586224 81.69657714 134.01060228 81.46671209 144.02015591 81.32644176 C148.67013831 81.25905756 153.31693762 81.16794797 157.96508789 81.01928711 C193.77037473 79.90395182 193.77037473 79.90395182 203.53515625 88.17578125 C205.24879479 89.8220487 206.84368411 91.50386962 208.39968872 93.29922485 C211.23484398 96.31236465 214.6279831 98.62479148 218 101 C217.4085875 106.05423334 216.29961999 110.67944677 214.67431641 115.50708008 C214.43824677 116.22402039 214.20217712 116.94096069 213.95895386 117.67962646 C213.17867389 120.04479289 212.3901123 122.40711048 211.6015625 124.76953125 C211.0458703 126.44909384 210.49073626 128.12884119 209.93612671 129.8087616 C208.46918199 134.24763405 206.99537776 138.68419784 205.51989746 143.12023926 C203.20043878 150.09823151 200.89227888 157.07997734 198.58187103 164.06097031 C197.72890952 166.63744179 196.87513096 169.21364156 196.02130127 171.78982544 C190.59718047 188.16620749 185.28162002 204.57717395 180 221 C180.5433902 220.59843185 181.0867804 220.19686371 181.64663696 219.78312683 C191.13413915 212.77260918 200.64236557 205.79503398 210.21728516 198.90429688 C215.75683739 194.91204477 221.25904461 190.87127101 226.75 186.8125 C233.26859792 181.99594759 239.82448479 177.23976924 246.4296875 172.54296875 C256.94225322 165.0657213 267.37468214 157.47881132 277.75 149.8125 C284.26724298 144.99714943 290.82113274 140.24135556 297.42578125 135.546875 C303.87525511 130.96009787 310.27707393 126.30666647 316.68994141 121.66894531 C318.95180829 120.03481701 321.21576308 118.4036287 323.48046875 116.7734375 C331.1853087 111.22450027 338.8628106 105.64176126 346.5 100 C354.87948458 93.80988881 363.31107363 87.69525691 371.76611328 81.60888672 C375.51359784 78.90987872 379.25655845 76.20461116 383 73.5 C384.49997854 72.41663696 385.99997854 71.33330362 387.5 70.25 C388.2425 69.71375 388.985 69.1775 389.75 68.625 C408.5 55.08333333 427.25 41.54166667 446 28 C444.70893111 28.00423059 444.70893111 28.00423059 443.39178002 28.00854665 C392.33601054 28.17419176 341.28049464 28.2718456 290.22444511 28.28166701 C284.08892026 28.28290586 277.95339569 28.2847106 271.81787109 28.28686523 C269.98572539 28.28749437 269.98572539 28.28749437 268.11656664 28.28813621 C248.36038349 28.29626851 228.60457896 28.3502043 208.84853305 28.42118094 C188.56463662 28.49303013 168.28111703 28.5153936 147.99710453 28.49218339 C135.48868962 28.47941926 122.9815676 28.50487609 110.47336565 28.57981863 C101.88645252 28.62756262 93.30036959 28.62707338 84.71341039 28.58934812 C79.76461006 28.56900939 74.81817453 28.56927054 69.86961746 28.62704659 C33.35997977 29.02830851 33.35997977 29.02830851 21.09867668 17.18689251 C20.57413957 16.63801321 20.04960247 16.08913392 19.50917029 15.52362192 C17.33281888 13.32643004 14.86250966 11.64521535 12.3046875 9.921875 C11.55058594 9.38175781 10.79648438 8.84164062 10.01953125 8.28515625 C8.5211662 7.21255613 7.02101984 6.14244198 5.51953125 5.07421875 C4.78863281 4.54957031 4.05773437 4.02492187 3.3046875 3.484375 C2.66515137 3.02772461 2.02561523 2.57107422 1.36669922 2.10058594 C0.91568848 1.73739258 0.46467773 1.37419922 0 1 C0 0.67 0 0.34 0 0 Z " fill="#F58635" transform="translate(1,180)"/>
<path d="M0 0 C0.7109375 2.1328125 1.421875 4.265625 2.1328125 6.3984375 C2.36079529 7.08234055 2.58877808 7.76624359 2.82366943 8.47087097 C4.1342021 12.40227737 5.44448787 16.33376583 6.75439453 20.26538086 C9.63883324 28.9219951 12.52673593 37.57742695 15.421875 46.23046875 C21.2678578 63.7093238 27.08349297 81.19819674 32.81695557 98.71432495 C33.43218101 100.59233816 34.04880786 102.46989293 34.66693115 104.34695435 C35.52699661 106.96040233 36.38141983 109.57563037 37.234375 112.19140625 C37.48581268 112.95211426 37.73725037 113.71282227 37.99630737 114.49658203 C39.65339577 119.6070894 40.92073212 124.73777054 42 130 C39.25274129 131.96221131 36.50203342 133.91949007 33.75 135.875 C32.97269531 136.43058594 32.19539063 136.98617187 31.39453125 137.55859375 C30.64042969 138.09355469 29.88632812 138.62851562 29.109375 139.1796875 C28.41811523 139.67194824 27.72685547 140.16420898 27.01464844 140.67138672 C25.06697419 141.9558321 23.10745816 143.00412271 21 144 C11.79643338 137.38301319 2.61613787 130.737069 -6.5 124 C-12.64014887 119.46247452 -18.8034574 114.96020842 -25 110.5 C-31.19654558 106.03978944 -37.35968142 101.53729843 -43.5 97 C-58.19988933 86.1440041 -73.04734655 75.50471224 -88 65 C-86.84432526 61.53297579 -86.00622599 61.00344024 -83.10546875 58.93359375 C-82.31462891 58.36576172 -81.52378906 57.79792969 -80.70898438 57.21289062 C-79.87689453 56.62701172 -79.04480469 56.04113281 -78.1875 55.4375 C-77.36701172 54.84775391 -76.54652344 54.25800781 -75.70117188 53.65039062 C-72.2187063 51.16775702 -68.87717765 48.82844484 -65 47 C-42.73745687 62.64014106 -20.71941196 78.61289876 1 95 C-1.07192064 86.92835513 -3.57688068 79.03091586 -6.23686981 71.13725662 C-6.93826591 69.0528521 -7.63426064 66.96671485 -8.32867432 64.87997437 C-10.30011013 58.95606278 -12.27438352 53.03316672 -14.26806641 47.11669922 C-15.4943085 43.47641627 -16.7088735 39.83241768 -17.91587067 36.18571091 C-18.37563781 34.80399933 -18.83974032 33.42372228 -19.30831146 32.04497147 C-19.96099502 30.12303293 -20.59755948 28.19564322 -21.23339844 26.26806641 C-21.59963318 25.17539459 -21.96586792 24.08272278 -22.34320068 22.9569397 C-23.03572039 19.83918524 -22.96456288 18.02166408 -22 15 C-20.48120117 13.37841797 -20.48120117 13.37841797 -18.54296875 11.9921875 C-17.84236328 11.48042969 -17.14175781 10.96867187 -16.41992188 10.44140625 C-15.68322266 9.92449219 -14.94652344 9.40757812 -14.1875 8.875 C-13.46240234 8.35035156 -12.73730469 7.82570313 -11.99023438 7.28515625 C-10.63371466 6.30468912 -9.27306785 5.32988765 -7.90698242 4.36279297 C-6.54043714 3.38621433 -5.20207602 2.36972567 -3.8840332 1.32861328 C-2 0 -2 0 0 0 Z " fill="#FFBD5A" transform="translate(383,306)"/>
<path d="M0 0 C1.084021 0.00523682 2.16804199 0.01047363 3.28491211 0.01586914 C4.45473633 0.0190918 5.62456055 0.02231445 6.82983398 0.02563477 C8.0615332 0.03401367 9.29323242 0.04239258 10.56225586 0.05102539 C12.41560547 0.05779297 12.41560547 0.05779297 14.30639648 0.06469727 C17.37089703 0.07652931 20.43530307 0.09301366 23.49975586 0.11352539 C31.03046647 22.42368937 38.32249618 44.80395415 45.46850586 67.24023438 C48.74891873 77.5359488 52.04575672 87.82529266 55.40991211 98.09399414 C55.71686508 99.03205902 56.02381805 99.9701239 56.34007263 100.93661499 C57.78465346 105.3493779 59.23405096 109.76046791 60.69091797 114.16918945 C61.20027672 115.72219597 61.70948216 117.27525278 62.21850586 118.82836914 C62.45203262 119.52898972 62.68555939 120.22961029 62.92616272 120.95146179 C63.85714529 123.80408702 64.49975586 126.08994914 64.49975586 129.11352539 C54.92975586 129.11352539 45.35975586 129.11352539 35.49975586 129.11352539 C32.38638473 119.53467039 29.27415455 109.95544677 26.16393375 100.37556839 C24.71970399 95.92731117 23.27497399 91.47921772 21.82910156 87.03149414 C20.43388915 82.73954594 19.03998973 78.44717337 17.64700127 74.15450287 C17.11520608 72.51649531 16.58293724 70.87864144 16.05018806 69.24094391 C15.30434121 66.94789908 14.56017722 64.65431456 13.81640625 62.3605957 C13.5955838 61.68302216 13.37476135 61.00544861 13.14724731 60.30734253 C12.16190495 57.26309659 11.21607228 54.2333282 10.49975586 51.11352539 C8.88027513 55.94682637 7.26296129 60.78084566 5.64746094 65.61547852 C5.10017215 67.25238553 4.55234043 68.88911115 4.00390625 70.52563477 C0.79172481 80.11212677 -2.3507208 89.71381074 -5.34130859 99.37182617 C-7.11760983 105.1067309 -8.93063108 110.82974202 -10.75024414 116.55102539 C-11.27618164 118.21875 -11.27618164 118.21875 -11.81274414 119.92016602 C-12.31547852 121.49894531 -12.31547852 121.49894531 -12.82836914 123.10961914 C-13.2755127 124.52005493 -13.2755127 124.52005493 -13.73168945 125.95898438 C-14.50024414 128.11352539 -14.50024414 128.11352539 -15.50024414 129.11352539 C-17.57286491 129.20119651 -19.64844708 129.22048412 -21.72290039 129.21118164 C-22.98295898 129.20795898 -24.24301758 129.20473633 -25.54125977 129.20141602 C-26.88175523 129.19305942 -28.22225002 129.18459446 -29.56274414 129.17602539 C-30.90714356 129.17101199 -32.25154474 129.16644881 -33.59594727 129.16235352 C-36.89742355 129.15052027 -40.19881217 129.1340351 -43.50024414 129.11352539 C-42.92609784 124.40143378 -42.00404624 120.10386934 -40.52929688 115.59472656 C-40.33021917 114.98058081 -40.13114147 114.36643505 -39.92603111 113.73367882 C-39.26735101 111.70615175 -38.60059104 109.68137925 -37.93383789 107.65649414 C-37.46224755 106.20972364 -36.99120603 104.76277415 -36.52067566 103.31565857 C-35.25990788 99.44253559 -33.99242505 95.57164141 -32.72370148 91.70111847 C-31.4118936 87.69522546 -30.10619094 83.68734561 -28.80053711 79.67944336 C-28.5404612 78.88111588 -28.28038528 78.08278839 -28.01242828 77.26026917 C-27.48645969 75.64568754 -26.96051975 74.03109657 -26.43460846 72.41649628 C-25.6435297 69.98860851 -24.8516964 67.56096781 -24.05975342 65.13336182 C-20.82358321 55.20868345 -17.61824398 45.27476515 -14.44946289 35.32836914 C-14.07347458 34.14846909 -13.69748627 32.96856903 -13.31010437 31.75291443 C-11.90456016 27.33845969 -10.50054419 22.92353443 -9.10177612 18.50692749 C-8.16670139 15.55470742 -7.22824094 12.60358219 -6.28930664 9.65258789 C-6.01749069 8.78943466 -5.74567474 7.92628143 -5.46562195 7.03697205 C-3.26975061 0.14846539 -3.26975061 0.14846539 0 0 Z " fill="#FFBD5A" transform="translate(272.500244140625,36.886474609375)"/>
<path d="M0 0 C9.98858901 -0.30360727 19.97605015 -0.53337867 29.96834373 -0.67355824 C34.61045688 -0.74090348 39.24937455 -0.83193792 43.88964844 -0.98071289 C80.60108838 -2.12675472 80.60108838 -2.12675472 91.93536377 7.89109802 C93.12705593 9.04433036 94.29820434 10.2193505 95.4430542 11.4190979 C97.63623562 13.6460252 100.10919282 15.33622669 102.6953125 17.078125 C103.44941406 17.61824219 104.20351562 18.15835938 104.98046875 18.71484375 C106.4788338 19.78744387 107.97898016 20.85755802 109.48046875 21.92578125 C110.21136719 22.45042969 110.94226563 22.97507813 111.6953125 23.515625 C112.33484863 23.97227539 112.97438477 24.42892578 113.63330078 24.89941406 C114.08431152 25.26260742 114.53532227 25.62580078 115 26 C115 26.33 115 26.66 115 27 C104.94197147 27.23298861 94.88459759 27.4100252 84.82440758 27.51812172 C80.15149152 27.57003775 75.48043799 27.6402992 70.80859375 27.75439453 C66.28910008 27.86406253 61.7713827 27.92304789 57.25065994 27.94877243 C55.53705536 27.96707263 53.82353435 28.00280676 52.1106987 28.05730057 C38.93148864 28.45943768 31.9286455 25.56893918 22 17 C20.29256815 15.75412994 18.57411 14.52292304 16.8359375 13.3203125 C15.348761 12.25548389 13.8617748 11.19038943 12.375 10.125 C11.61316406 9.58359375 10.85132812 9.0421875 10.06640625 8.484375 C8.96232422 7.69160156 8.96232422 7.69160156 7.8359375 6.8828125 C7.19188965 6.42277832 6.5478418 5.96274414 5.88427734 5.48876953 C3.75344183 3.80519413 1.90629811 1.9313334 0 0 Z " fill="#F58635" transform="translate(58,221)"/>
</svg>
